<svg width="860" height="278" viewBox="0 0 860 278" fill="none" xmlns="http://www.w3.org/2000/svg">
<path d="M177 29C261.5 29 318 93 351 138C312 193.5 254.5 249 169 249C83.5 249 26.5 174 0 139C1.8201 136.732 3.71337 134.344 5.68457 131.856C36.7455 92.6633 87.199 29 177 29ZM177 64C103.5 64 68.5 109.5 42 140C61.6667 165.5 106 215.5 177 215.5C240.5 215.5 290.333 165.5 309 140C285.5 109.5 241.5 64 177 64Z" fill="#7DC3EE"/>
<path d="M176 67.5C215.488 67.5 247.5 99.5116 247.5 139C247.5 178.488 215.488 210.5 176 210.5C136.512 210.5 104.5 178.488 104.5 139C104.5 99.5116 136.512 67.5 176 67.5ZM176 115.5C161.917 115.5 150.5 126.917 150.5 141C150.5 155.083 161.917 166.5 176 166.5C190.083 166.5 201.5 155.083 201.5 141C201.5 126.917 190.083 115.5 176 115.5Z" fill="#17466D"/>
<path d="M397.538 223V55.7273H432.904V129.481H435.109L495.305 55.7273H537.695L475.621 130.624L538.43 223H496.121L450.301 154.229L432.904 175.464V223H397.538ZM615.409 223H556.113V55.7273H615.9C632.725 55.7273 647.209 59.076 659.351 65.7734C671.494 72.4164 680.832 81.9725 687.366 94.4418C693.955 106.911 697.249 121.83 697.249 139.2C697.249 156.625 693.955 171.598 687.366 184.122C680.832 196.646 671.439 206.256 659.188 212.954C646.991 219.651 632.398 223 615.409 223ZM591.478 192.698H613.939C624.394 192.698 633.188 190.847 640.321 187.144C647.508 183.387 652.899 177.588 656.493 169.747C660.141 161.852 661.965 151.67 661.965 139.2C661.965 126.84 660.141 116.739 656.493 108.898C652.899 101.058 647.535 95.2857 640.402 91.5831C633.269 87.8804 624.476 86.0291 614.021 86.0291H591.478V192.698ZM814.189 103.835C813.535 97.246 810.731 92.1276 805.776 88.4794C800.821 84.8312 794.096 83.0071 785.602 83.0071C779.83 83.0071 774.957 83.8239 770.982 85.4574C767.007 87.0365 763.958 89.2417 761.834 92.0731C759.765 94.9046 758.731 98.1172 758.731 101.711C758.622 104.706 759.248 107.319 760.609 109.552C762.025 111.784 763.958 113.717 766.408 115.351C768.858 116.93 771.69 118.318 774.903 119.516C778.115 120.66 781.546 121.64 785.194 122.457L800.222 126.05C807.519 127.684 814.216 129.862 820.314 132.585C826.413 135.307 831.695 138.656 836.16 142.631C840.625 146.606 844.082 151.288 846.532 156.679C849.037 162.07 850.317 168.25 850.371 175.219C850.317 185.456 847.703 194.332 842.53 201.846C837.412 209.306 830.007 215.105 820.314 219.243C810.677 223.327 799.051 225.369 785.439 225.369C771.935 225.369 760.174 223.299 750.155 219.161C740.19 215.023 732.404 208.897 726.795 200.784C721.241 192.616 718.328 182.516 718.056 170.482H752.278C752.659 176.091 754.266 180.773 757.097 184.531C759.983 188.233 763.822 191.037 768.613 192.943C773.46 194.795 778.932 195.72 785.03 195.72C791.02 195.72 796.22 194.849 800.631 193.107C805.095 191.364 808.553 188.941 811.003 185.837C813.454 182.734 814.679 179.167 814.679 175.138C814.679 171.381 813.563 168.223 811.33 165.663C809.152 163.104 805.939 160.926 801.692 159.129C797.5 157.332 792.354 155.699 786.256 154.229L768.042 149.655C753.939 146.224 742.804 140.861 734.636 133.565C726.469 126.268 722.412 116.44 722.466 104.08C722.412 93.9517 725.107 85.1035 730.552 77.5348C736.052 69.9661 743.593 64.0582 753.177 59.8111C762.76 55.5639 773.65 53.4403 785.847 53.4403C798.262 53.4403 809.098 55.5639 818.354 59.8111C827.665 64.0582 834.907 69.9661 840.08 77.5348C845.253 85.1035 847.921 93.87 848.084 103.835H814.189Z" fill="#17466D"/>
</svg>
